# MagicaVoxel @ Ephtracy

# group
o 

# material
mtllib grave02.mtl
usemtl palette

# normals
vn -1 0 0
vn 1 0 0
vn 0 0 1
vn 0 0 -1
vn 0 -1 0
vn 0 1 0

# texcoords
vt 0.00976563 0.5
vt 0.986328 0.5

# verts
v 0.5 2 -0.4
v 0.5 2 -1.5
v 0.5 2.1 -0.4
v 0.5 2.1 -1.5
v 0.6 2 -0.3
v 0.6 2 -0.4
v 0.6 2 -1.5
v 0.6 2 -1.6
v 0.6 2.1 -0.3
v 0.6 2.1 -0.4
v 0.6 2.1 -1.5
v 0.6 2.1 -1.6
v 0.6 2.2 -0.4
v 0.6 2.2 -1.5
v 0.6 2.8 -1.5
v 0.6 2.8 -1.6
v 0.6 2.9 -1.5
v 0.6 2.9 -1.6
v 0.7 2 -0.2
v 0.7 2 -0.3
v 0.7 2.1 -0.2
v 0.7 2.1 -0.3
v 0.7 2.1 -0.4
v 0.7 2.1 -1.5
v 0.7 2.1 -1.6
v 0.7 2.2 -0.3
v 0.7 2.2 -0.4
v 0.7 2.2 -1.5
v 0.7 2.2 -1.6
v 0.7 2.3 -0.4
v 0.7 2.3 -1.5
v 0.8 2.2 -1.5
v 0.8 2.2 -1.6
v 0.8 2.3 -1.5
v 0.8 2.8 -1.5
v 0.8 2.8 -1.6
v 0.8 2.9 -1.5
v 0.8 2.9 -1.6
v 0.8 3.1 -1.5
v 0.8 3.1 -1.6
v 0.9 2.2 -1.5
v 0.9 2.2 -1.6
v 0.9 2.3 -1.5
v 0.9 2.8 -1.5
v 0.9 2.8 -1.6
v 0.9 2.9 -1.5
v 0.9 2.9 -1.6
v 0.9 3.1 -1.5
v 0.9 3.1 -1.6
v 1 2 -0.2
v 1 2 -0.3
v 1 2.1 -0.2
v 1 2.1 -0.3
v 1 2.1 -0.4
v 1 2.1 -1.5
v 1 2.1 -1.6
v 1 2.2 -0.3
v 1 2.2 -0.4
v 1 2.2 -1.5
v 1 2.2 -1.6
v 1 2.3 -0.4
v 1 2.3 -1.5
v 1.1 2 -0.3
v 1.1 2 -0.4
v 1.1 2 -1.5
v 1.1 2 -1.6
v 1.1 2.1 -0.3
v 1.1 2.1 -0.4
v 1.1 2.1 -1.5
v 1.1 2.1 -1.6
v 1.1 2.2 -0.4
v 1.1 2.2 -1.5
v 1.1 2.8 -1.5
v 1.1 2.8 -1.6
v 1.1 2.9 -1.5
v 1.1 2.9 -1.6
v 1.2 2 -0.4
v 1.2 2 -1.5
v 1.2 2.1 -0.4
v 1.2 2.1 -1.5
v 0.7 2 -0.2
v 0.7 2.1 -0.2
v 1 2 -0.2
v 1 2.1 -0.2
v 0.6 2 -0.3
v 0.6 2.1 -0.3
v 0.7 2 -0.3
v 0.7 2.1 -0.3
v 0.7 2.2 -0.3
v 1 2 -0.3
v 1 2.1 -0.3
v 1 2.2 -0.3
v 1.1 2 -0.3
v 1.1 2.1 -0.3
v 0.5 2 -0.4
v 0.5 2.1 -0.4
v 0.6 2 -0.4
v 0.6 2.1 -0.4
v 0.6 2.2 -0.4
v 0.7 2.1 -0.4
v 0.7 2.2 -0.4
v 0.7 2.3 -0.4
v 1 2.1 -0.4
v 1 2.2 -0.4
v 1 2.3 -0.4
v 1.1 2 -0.4
v 1.1 2.1 -0.4
v 1.1 2.2 -0.4
v 1.2 2 -0.4
v 1.2 2.1 -0.4
v 0.6 2.8 -1.5
v 0.6 2.9 -1.5
v 0.8 2.3 -1.5
v 0.8 2.8 -1.5
v 0.8 2.9 -1.5
v 0.8 3.1 -1.5
v 0.9 2.3 -1.5
v 0.9 2.8 -1.5
v 0.9 2.9 -1.5
v 0.9 3.1 -1.5
v 1.1 2.8 -1.5
v 1.1 2.9 -1.5
v 0.5 2 -1.5
v 0.5 2.1 -1.5
v 0.6 2 -1.5
v 0.6 2.1 -1.5
v 0.6 2.2 -1.5
v 0.7 2.1 -1.5
v 0.7 2.2 -1.5
v 0.7 2.3 -1.5
v 0.8 2.2 -1.5
v 0.8 2.3 -1.5
v 0.9 2.2 -1.5
v 0.9 2.3 -1.5
v 1 2.1 -1.5
v 1 2.2 -1.5
v 1 2.3 -1.5
v 1.1 2 -1.5
v 1.1 2.1 -1.5
v 1.1 2.2 -1.5
v 1.2 2 -1.5
v 1.2 2.1 -1.5
v 0.6 2 -1.6
v 0.6 2.1 -1.6
v 0.6 2.8 -1.6
v 0.6 2.9 -1.6
v 0.7 2.1 -1.6
v 0.7 2.2 -1.6
v 0.8 2 -1.6
v 0.8 2.2 -1.6
v 0.8 2.8 -1.6
v 0.8 2.9 -1.6
v 0.8 3.1 -1.6
v 0.9 2 -1.6
v 0.9 2.2 -1.6
v 0.9 2.8 -1.6
v 0.9 2.9 -1.6
v 0.9 3.1 -1.6
v 1 2.1 -1.6
v 1 2.2 -1.6
v 1.1 2 -1.6
v 1.1 2.1 -1.6
v 1.1 2.8 -1.6
v 1.1 2.9 -1.6
v 0.7 2 -0.2
v 1 2 -0.2
v 0.6 2 -0.3
v 0.7 2 -0.3
v 1 2 -0.3
v 1.1 2 -0.3
v 0.5 2 -0.4
v 0.6 2 -0.4
v 1.1 2 -0.4
v 1.2 2 -0.4
v 0.5 2 -1.5
v 0.6 2 -1.5
v 0.8 2 -1.5
v 0.9 2 -1.5
v 1.1 2 -1.5
v 1.2 2 -1.5
v 0.6 2 -1.6
v 0.8 2 -1.6
v 0.9 2 -1.6
v 1.1 2 -1.6
v 0.6 2.8 -1.5
v 0.8 2.8 -1.5
v 0.9 2.8 -1.5
v 1.1 2.8 -1.5
v 0.6 2.8 -1.6
v 0.8 2.8 -1.6
v 0.9 2.8 -1.6
v 1.1 2.8 -1.6
v 0.7 2.1 -0.2
v 1 2.1 -0.2
v 0.6 2.1 -0.3
v 0.7 2.1 -0.3
v 1 2.1 -0.3
v 1.1 2.1 -0.3
v 0.5 2.1 -0.4
v 0.6 2.1 -0.4
v 0.7 2.1 -0.4
v 1 2.1 -0.4
v 1.1 2.1 -0.4
v 1.2 2.1 -0.4
v 0.5 2.1 -1.5
v 0.6 2.1 -1.5
v 0.7 2.1 -1.5
v 1 2.1 -1.5
v 1.1 2.1 -1.5
v 1.2 2.1 -1.5
v 0.6 2.1 -1.6
v 0.7 2.1 -1.6
v 1 2.1 -1.6
v 1.1 2.1 -1.6
v 0.7 2.2 -0.3
v 1 2.2 -0.3
v 0.6 2.2 -0.4
v 0.7 2.2 -0.4
v 1 2.2 -0.4
v 1.1 2.2 -0.4
v 0.6 2.2 -1.5
v 0.7 2.2 -1.5
v 0.8 2.2 -1.5
v 0.9 2.2 -1.5
v 1 2.2 -1.5
v 1.1 2.2 -1.5
v 0.7 2.2 -1.6
v 0.8 2.2 -1.6
v 0.9 2.2 -1.6
v 1 2.2 -1.6
v 0.7 2.3 -0.4
v 1 2.3 -0.4
v 0.7 2.3 -1.5
v 0.8 2.3 -1.5
v 0.9 2.3 -1.5
v 1 2.3 -1.5
v 0.6 2.9 -1.5
v 0.8 2.9 -1.5
v 0.9 2.9 -1.5
v 1.1 2.9 -1.5
v 0.6 2.9 -1.6
v 0.8 2.9 -1.6
v 0.9 2.9 -1.6
v 1.1 2.9 -1.6
v 0.8 3.1 -1.5
v 0.9 3.1 -1.5
v 0.8 3.1 -1.6
v 0.9 3.1 -1.6

# faces
f 3/1/1 2/1/1 1/1/1
f 4/1/1 2/1/1 3/1/1
f 9/1/1 6/1/1 5/1/1
f 10/1/1 6/1/1 9/1/1
f 11/1/1 8/1/1 7/1/1
f 12/1/1 8/1/1 11/1/1
f 13/1/1 11/1/1 10/1/1
f 14/1/1 11/1/1 13/1/1
f 17/2/1 16/2/1 15/2/1
f 18/2/1 16/2/1 17/2/1
f 21/1/1 20/1/1 19/1/1
f 22/1/1 20/1/1 21/1/1
f 26/1/1 23/1/1 22/1/1
f 27/1/1 23/1/1 26/1/1
f 28/1/1 25/1/1 24/1/1
f 29/1/1 25/1/1 28/1/1
f 30/1/1 28/1/1 27/1/1
f 31/1/1 28/1/1 30/1/1
f 34/2/1 33/2/1 32/2/1
f 35/2/1 33/2/1 34/2/1
f 36/2/1 33/2/1 35/2/1
f 39/2/1 38/2/1 37/2/1
f 40/2/1 38/2/1 39/2/1
f 41/2/2 42/2/2 43/2/2
f 43/2/2 42/2/2 44/2/2
f 44/2/2 42/2/2 45/2/2
f 46/2/2 47/2/2 48/2/2
f 48/2/2 47/2/2 49/2/2
f 50/1/2 51/1/2 52/1/2
f 52/1/2 51/1/2 53/1/2
f 53/1/2 54/1/2 57/1/2
f 57/1/2 54/1/2 58/1/2
f 55/1/2 56/1/2 59/1/2
f 59/1/2 56/1/2 60/1/2
f 58/1/2 59/1/2 61/1/2
f 61/1/2 59/1/2 62/1/2
f 63/1/2 64/1/2 67/1/2
f 67/1/2 64/1/2 68/1/2
f 65/1/2 66/1/2 69/1/2
f 69/1/2 66/1/2 70/1/2
f 68/1/2 69/1/2 71/1/2
f 71/1/2 69/1/2 72/1/2
f 73/2/2 74/2/2 75/2/2
f 75/2/2 74/2/2 76/2/2
f 77/1/2 78/1/2 79/1/2
f 79/1/2 78/1/2 80/1/2
f 83/1/3 82/1/3 81/1/3
f 84/1/3 82/1/3 83/1/3
f 87/1/3 86/1/3 85/1/3
f 88/1/3 86/1/3 87/1/3
f 91/1/3 89/1/3 88/1/3
f 92/1/3 89/1/3 91/1/3
f 93/1/3 91/1/3 90/1/3
f 94/1/3 91/1/3 93/1/3
f 97/1/3 96/1/3 95/1/3
f 98/1/3 96/1/3 97/1/3
f 100/1/3 99/1/3 98/1/3
f 101/1/3 99/1/3 100/1/3
f 104/1/3 102/1/3 101/1/3
f 105/1/3 102/1/3 104/1/3
f 107/1/3 104/1/3 103/1/3
f 108/1/3 104/1/3 107/1/3
f 109/1/3 107/1/3 106/1/3
f 110/1/3 107/1/3 109/1/3
f 114/2/3 112/2/3 111/2/3
f 115/2/3 112/2/3 114/2/3
f 117/2/3 114/2/3 113/2/3
f 117/2/3 116/2/3 115/2/3
f 117/2/3 115/2/3 114/2/3
f 118/2/3 116/2/3 117/2/3
f 119/2/3 116/2/3 118/2/3
f 120/2/3 116/2/3 119/2/3
f 121/2/3 119/2/3 118/2/3
f 122/2/3 119/2/3 121/2/3
f 123/1/4 124/1/4 125/1/4
f 125/1/4 124/1/4 126/1/4
f 126/1/4 127/1/4 128/1/4
f 128/1/4 127/1/4 129/1/4
f 129/1/4 130/1/4 131/1/4
f 131/1/4 130/1/4 132/1/4
f 133/1/4 134/1/4 136/1/4
f 136/1/4 134/1/4 137/1/4
f 135/1/4 136/1/4 139/1/4
f 139/1/4 136/1/4 140/1/4
f 138/1/4 139/1/4 141/1/4
f 141/1/4 139/1/4 142/1/4
f 143/1/4 144/1/4 147/1/4
f 143/1/4 147/1/4 149/1/4
f 147/1/4 148/1/4 149/1/4
f 149/1/4 148/1/4 150/1/4
f 145/2/4 146/2/4 151/2/4
f 151/2/4 146/2/4 152/2/4
f 149/2/4 150/2/4 154/2/4
f 152/2/4 153/2/4 154/2/4
f 151/2/4 152/2/4 154/2/4
f 150/2/4 151/2/4 154/2/4
f 154/2/4 153/2/4 155/2/4
f 155/2/4 153/2/4 156/2/4
f 156/2/4 153/2/4 157/2/4
f 157/2/4 153/2/4 158/2/4
f 154/1/4 155/1/4 159/1/4
f 159/1/4 155/1/4 160/1/4
f 154/1/4 159/1/4 161/1/4
f 161/1/4 159/1/4 162/1/4
f 156/2/4 157/2/4 163/2/4
f 163/2/4 157/2/4 164/2/4
f 168/1/5 166/1/5 165/1/5
f 169/1/5 166/1/5 168/1/5
f 172/1/5 168/1/5 167/1/5
f 172/1/5 170/1/5 169/1/5
f 172/1/5 169/1/5 168/1/5
f 173/1/5 170/1/5 172/1/5
f 175/1/5 172/1/5 171/1/5
f 175/1/5 174/1/5 173/1/5
f 175/1/5 173/1/5 172/1/5
f 176/1/5 174/1/5 175/1/5
f 177/1/5 174/1/5 176/1/5
f 178/1/5 174/1/5 177/1/5
f 179/1/5 174/1/5 178/1/5
f 180/1/5 174/1/5 179/1/5
f 181/1/5 177/1/5 176/1/5
f 182/2/5 178/2/5 177/2/5
f 182/1/5 177/1/5 181/1/5
f 183/1/5 179/1/5 178/1/5
f 183/2/5 178/2/5 182/2/5
f 184/1/5 179/1/5 183/1/5
f 189/2/5 186/2/5 185/2/5
f 190/2/5 186/2/5 189/2/5
f 191/2/5 188/2/5 187/2/5
f 192/2/5 188/2/5 191/2/5
f 193/1/6 194/1/6 196/1/6
f 196/1/6 194/1/6 197/1/6
f 195/1/6 196/1/6 200/1/6
f 200/1/6 196/1/6 201/1/6
f 197/1/6 198/1/6 202/1/6
f 202/1/6 198/1/6 203/1/6
f 199/1/6 200/1/6 205/1/6
f 205/1/6 200/1/6 206/1/6
f 203/1/6 204/1/6 209/1/6
f 209/1/6 204/1/6 210/1/6
f 206/1/6 207/1/6 211/1/6
f 211/1/6 207/1/6 212/1/6
f 208/1/6 209/1/6 213/1/6
f 213/1/6 209/1/6 214/1/6
f 215/1/6 216/1/6 218/1/6
f 218/1/6 216/1/6 219/1/6
f 217/1/6 218/1/6 221/1/6
f 221/1/6 218/1/6 222/1/6
f 219/1/6 220/1/6 225/1/6
f 225/1/6 220/1/6 226/1/6
f 222/1/6 223/1/6 227/1/6
f 227/1/6 223/1/6 228/1/6
f 224/1/6 225/1/6 229/1/6
f 229/1/6 225/1/6 230/1/6
f 231/1/6 232/1/6 233/1/6
f 233/1/6 232/1/6 234/1/6
f 234/1/6 232/1/6 235/1/6
f 235/1/6 232/1/6 236/1/6
f 237/2/6 238/2/6 241/2/6
f 241/2/6 238/2/6 242/2/6
f 239/2/6 240/2/6 243/2/6
f 243/2/6 240/2/6 244/2/6
f 245/2/6 246/2/6 247/2/6
f 247/2/6 246/2/6 248/2/6
